<mxfile host="app.diagrams.net" modified="2021-07-14T07:14:34.802Z" agent="5.0 (Windows NT 10.0; Win64; x64) AppleWebKit/537.36 (KHTML, like Gecko) Chrome/91.0.4472.124 Safari/537.36" etag="dr3u_5ymVsJB6Nf8ddCM" version="14.8.2" type="github">
  <diagram id="NcXVLVowhBdeqqHyerkg" name="Page-1">
    <mxGraphModel dx="1422" dy="794" grid="1" gridSize="10" guides="1" tooltips="1" connect="1" arrows="1" fold="1" page="1" pageScale="1" pageWidth="827" pageHeight="1169" math="0" shadow="0">
      <root>
        <mxCell id="0" />
        <mxCell id="1" parent="0" />
        <mxCell id="gTSONYiS2YOhTLfpiVWm-3" value="" style="edgeStyle=orthogonalEdgeStyle;rounded=0;orthogonalLoop=1;jettySize=auto;html=1;" edge="1" parent="1" source="gTSONYiS2YOhTLfpiVWm-1" target="gTSONYiS2YOhTLfpiVWm-2">
          <mxGeometry relative="1" as="geometry" />
        </mxCell>
        <mxCell id="gTSONYiS2YOhTLfpiVWm-1" value="" style="rounded=0;whiteSpace=wrap;html=1;" vertex="1" parent="1">
          <mxGeometry x="110" y="210" width="90" height="60" as="geometry" />
        </mxCell>
        <mxCell id="gTSONYiS2YOhTLfpiVWm-2" value="" style="rounded=0;whiteSpace=wrap;html=1;" vertex="1" parent="1">
          <mxGeometry x="265" y="210" width="120" height="60" as="geometry" />
        </mxCell>
      </root>
    </mxGraphModel>
  </diagram>
</mxfile>
